<svg width="60" height="60" viewBox="0 0 60 60" fill="none" xmlns="http://www.w3.org/2000/svg">
<rect width="60" height="60" fill="#0F0F0F"/>
<path d="M51.7501 28.2515L20.0331 10.0595C19.8444 9.96208 19.6926 9.98331 19.4479 10.1303L19.4552 10.1238L17.197 11.4191C17.0495 11.5212 17.009 11.6757 17 11.7471V48.0984L17.0016 48.0885C16.9947 48.3346 17.0558 48.4672 17.2518 48.5898L19.6142 49.9449C19.7844 50.0179 19.8766 50.007 20.0402 49.9172L51.7694 31.7378C51.94 31.63 51.999 31.4931 51.9998 31.2295V28.6452C51.9939 28.5673 51.9377 28.3498 51.7501 28.2515ZM38.5421 26.9281L43.9164 30.0108L38.5415 33.0935L38.5421 26.9281ZM22.4468 36.1301L27.8101 39.2045L22.4468 42.2808V36.1301ZM27.8103 20.7726L22.4513 23.8506V17.699L27.8103 20.7726ZM22.6387 29.9892L33.091 23.994V35.9843L22.6387 29.9892Z" fill="#4A9671"/>
<path d="M30.4585 37.6856L27.8217 39.2112L19.7998 34.6126L19.7756 49.9875C19.7137 49.9888 19.6773 49.9722 19.6142 49.9449L17.2518 48.59C17.0558 48.4676 16.9947 48.3348 17.0016 48.0887L17 48.0986V29.9665L30.4585 37.6856ZM51.931 28.4502L38.5411 36.1137L38.5421 26.9182L35.8904 25.4072L35.8858 40.8336L51.7696 31.7378C51.9402 31.63 51.9992 31.4931 52 31.2292V28.6452C51.9935 28.56 51.9666 28.5111 51.931 28.4502ZM20.0331 10.0595C19.8444 9.96208 19.6926 9.98331 19.4479 10.1303L19.4552 10.1238L17.197 11.4191C17.1362 11.4626 17.0904 11.5095 17.0582 11.5647L30.4591 19.251L22.4454 23.8541L22.4513 26.8846L35.9098 19.1657L20.0331 10.0595Z" fill="#3D8562"/>
<path d="M51.9465 28.444L38.5411 36.1115L38.5415 33.0913L46.5675 28.4879L33.1091 20.7692L35.9084 19.1635L51.7499 28.2495C51.8443 28.3077 51.9072 28.3696 51.9465 28.444ZM17.0584 11.5625C17.0283 11.6145 17.009 11.6735 17 11.7449V29.9641L19.7996 31.5769V16.1754L27.8284 20.7708L30.4593 19.2486L17.0584 11.5625ZM22.4279 45.3386L22.4466 36.1279L19.7996 34.6104L19.7772 49.9983C19.8525 49.9971 19.9311 49.9738 20.0213 49.93L35.8866 40.8308V37.6195L22.4279 45.3386Z" fill="#7DA491"/>
</svg>
