<svg width="400" height="400" viewBox="0 0 400 400" fill="none" xmlns="http://www.w3.org/2000/svg">
<rect width="400" height="400" fill="#0F0F0F"/>
<path d="M343.343 188.372L133.105 67.3959C131.854 66.7478 130.848 66.889 129.226 67.8665L129.275 67.8235L114.306 76.4371C113.328 77.1162 113.059 78.1434 113 78.6181V320.355L113.011 320.289C112.965 321.925 113.37 322.807 114.669 323.622L130.328 332.634C131.456 333.119 132.067 333.046 133.152 332.449L343.471 211.556C344.602 210.84 344.993 209.929 344.999 208.176V190.99C344.96 190.473 344.587 189.026 343.343 188.372ZM255.793 179.572L291.417 200.072L255.789 220.572L255.793 179.572ZM149.104 240.765L184.656 261.21L149.104 281.667V240.765ZM184.657 138.638L149.134 159.107V118.198L184.657 138.638ZM150.377 199.928L219.661 160.06V239.796L150.377 199.928Z" fill="#4A9671"/>
<path d="M202.211 251.109L184.733 261.255L131.559 230.674L131.398 332.917C130.988 332.925 130.747 332.815 130.328 332.633L114.669 323.623C113.37 322.81 112.965 321.926 113.011 320.29L113 320.356V199.777L202.211 251.109ZM344.543 189.694L255.787 240.656L255.793 179.506L238.217 169.458L238.186 272.044L343.473 211.556C344.603 210.84 344.995 209.929 345 208.174V190.99C344.957 190.424 344.779 190.099 344.543 189.694ZM133.105 67.3959C131.854 66.7478 130.848 66.889 129.226 67.8665L129.275 67.8235L114.306 76.4371C113.903 76.7262 113.599 77.0382 113.386 77.4053L202.215 128.519L149.095 159.13L149.134 179.283L238.345 127.952L133.105 67.3959Z" fill="#3D8562"/>
<path d="M344.645 189.653L255.787 240.642L255.789 220.557L308.99 189.944L219.781 138.615L238.335 127.937L343.342 188.359C343.968 188.746 344.385 189.158 344.645 189.653ZM113.387 77.3906C113.188 77.7362 113.059 78.1288 113 78.6035V199.761L131.557 210.486V108.067L184.777 138.626L202.216 128.504L113.387 77.3906ZM148.979 302.002L149.103 240.751L131.557 230.659L131.409 332.989C131.908 332.981 132.429 332.826 133.027 332.534L238.191 272.025V250.67L148.979 302.002Z" fill="#7DA491"/>
</svg>
