<svg width="500" height="500" viewBox="0 0 500 500" fill="none" xmlns="http://www.w3.org/2000/svg">
<rect width="500" height="500" rx="250" fill="#0F0F0F"/>
<path d="M433.922 235.944L170.218 84.4957C168.649 83.6843 167.387 83.8611 165.353 85.0848L165.414 85.0309L146.638 95.8142C145.411 96.6642 145.074 97.9503 145 98.5445V401.169L145.014 401.087C144.956 403.135 145.464 404.24 147.093 405.26L166.735 416.541C168.15 417.149 168.916 417.058 170.277 416.311L434.083 264.967C435.501 264.07 435.992 262.93 435.998 260.735V239.221C435.949 238.573 435.482 236.762 433.922 235.944ZM324.107 224.926L368.791 250.59L324.102 276.254L324.107 224.926ZM190.286 301.533L234.878 327.128L190.286 352.738V301.533ZM234.88 173.682L190.323 199.307V148.094L234.88 173.682ZM191.882 250.41L278.785 200.5V300.32L191.882 250.41Z" fill="#4A9671"/>
<path d="M256.898 314.483L234.975 327.183L168.279 288.9L168.077 416.896C167.563 416.906 167.26 416.768 166.735 416.541L147.093 405.261C145.464 404.243 144.956 403.137 145.014 401.088L145 401.171V250.221L256.898 314.483ZM435.426 237.598L324.099 301.397L324.107 224.844L302.061 212.265L302.022 340.69L434.084 264.967C435.502 264.07 435.993 262.93 436 260.733V239.221C435.946 238.512 435.722 238.105 435.426 237.598ZM170.218 84.4957C168.649 83.6843 167.387 83.8611 165.353 85.0848L165.414 85.0309L146.638 95.8141C146.132 96.1761 145.751 96.5666 145.484 97.0261L256.903 161.015L190.274 199.335L190.323 224.564L302.221 160.305L170.218 84.4957Z" fill="#3D8562"/>
<path d="M435.555 237.546L324.099 301.379L324.102 276.235L390.832 237.912L278.936 173.653L302.209 160.286L433.92 235.927C434.705 236.412 435.228 236.927 435.555 237.546ZM145.486 97.0078C145.235 97.4404 145.074 97.9319 145 98.5261V250.201L168.277 263.627V135.411L235.031 173.667L256.905 160.995L145.486 97.0078ZM190.129 378.194L190.284 301.515L168.277 288.882L168.091 416.986C168.717 416.976 169.37 416.782 170.12 416.417L302.028 340.667V313.933L190.129 378.194Z" fill="#7DA491"/>
</svg>
