<svg width="200" height="200" viewBox="0 0 200 200" fill="none" xmlns="http://www.w3.org/2000/svg">
<rect width="200" height="200" rx="100" fill="#0F0F0F"/>
<path d="M174.164 94.1425L68.1391 33.1995C67.5084 32.873 67.0008 32.9441 66.183 33.4365L66.2075 33.4149L58.6586 37.754C58.1653 38.0961 58.0299 38.6136 58 38.8527V160.63L58.0054 160.597C57.9823 161.421 58.1864 161.865 58.8416 162.276L66.7389 166.815C67.3077 167.06 67.6159 167.023 68.1629 166.723L174.229 105.822C174.799 105.461 174.997 105.002 174.999 104.119V95.4613C174.98 95.2005 174.792 94.4717 174.164 94.1425ZM130.012 89.7091L147.978 100.036L130.01 110.363L130.012 89.7091ZM76.2078 120.536L94.1367 130.835L76.2078 141.141V120.536ZM94.1374 69.0882L76.2228 79.3997V58.7916L94.1374 69.0882ZM76.8494 99.9637L111.79 79.8799V120.048L76.8494 99.9637Z" fill="#4A9671"/>
<path d="M102.99 125.747L94.1755 130.858L67.3594 115.452L67.2784 166.958C67.0716 166.962 66.9498 166.907 66.7389 166.815L58.8416 162.276C58.1864 161.867 57.9823 161.422 58.0054 160.597L58 160.63V99.8879L102.99 125.747ZM174.769 94.8083L130.009 120.481L130.012 89.6759L121.148 84.614L121.132 136.293L174.23 105.822C174.8 105.461 174.997 105.002 175 104.118V95.4613C174.978 95.1761 174.888 95.0122 174.769 94.8083ZM68.1391 33.1995C67.5084 32.873 67.0008 32.9441 66.183 33.4365L66.2075 33.4149L58.6586 37.754C58.4552 37.8997 58.3021 38.0568 58.1946 38.2417L102.992 63.991L76.2031 79.4112L76.2228 89.5635L121.213 63.7052L68.1391 33.1995Z" fill="#3D8562"/>
<path d="M174.821 94.7874L130.009 120.474L130.01 110.356L156.84 94.9344L111.851 69.0767L121.208 63.6978L174.164 94.1358C174.479 94.3309 174.69 94.5381 174.821 94.7874ZM58.1953 38.2344C58.0946 38.4085 58.0299 38.6062 58 38.8454V99.8798L67.3587 105.282V53.6877L94.1979 69.0822L102.993 63.983L58.1953 38.2344ZM76.1446 151.384L76.2071 120.529L67.3587 115.445L67.2839 166.994C67.5356 166.99 67.7983 166.912 68.0997 166.765L121.135 136.283V125.525L76.1446 151.384Z" fill="#7DA491"/>
</svg>
