<svg width="700" height="800" viewBox="0 0 700 800" fill="none" xmlns="http://www.w3.org/2000/svg">
<g clip-path="url(#clip0_3211_89194)">
<path d="M695.001 365.03L60.6614 1.19077C56.8879 -0.758413 53.8512 -0.333798 48.9582 2.60616L49.1047 2.47675L3.94043 28.3823C0.989178 30.4245 0.17911 33.5141 0 34.9416V761.968L0.0325655 761.77C-0.105838 766.692 1.11537 769.345 5.03544 771.795L52.2839 798.898C55.687 800.358 57.5311 800.139 60.8039 798.344L695.388 434.756C698.799 432.6 699.98 429.862 699.996 424.589V372.903C699.878 371.346 698.754 366.995 695.001 365.03ZM430.842 338.562L538.328 400.216L430.83 461.87L430.842 338.562ZM108.936 522.602L216.203 584.091L108.936 645.616V522.602ZM216.207 215.452L109.025 277.013V153.98L216.207 215.452ZM112.774 399.783L321.821 279.88V519.687L112.774 399.783Z" fill="#139F6D"/>
<path d="M269.17 553.713L216.435 584.224L55.9964 492.252L55.512 799.751C54.2745 799.775 53.5459 799.444 52.2839 798.898L5.03544 771.799C1.11537 769.353 -0.105838 766.696 0.0325655 761.774L0 761.972V399.33L269.17 553.713ZM698.62 369.005L430.822 522.275L430.842 338.364L377.809 308.143L377.715 616.673L695.392 434.756C698.803 432.6 699.984 429.862 700 424.585V372.903C699.87 371.201 699.332 370.222 698.62 369.005ZM60.6614 1.19077C56.8879 -0.758413 53.8512 -0.333797 48.9582 2.60616L49.1047 2.47675L3.94043 28.3823C2.72329 29.2518 1.80739 30.19 1.16422 31.294L269.183 185.021L108.907 277.082L109.025 337.692L378.196 183.314L60.6614 1.19077Z" fill="#088457"/>
<path d="M698.929 368.88L430.821 522.231L430.83 461.826L591.349 369.758L322.183 215.384L378.167 183.27L694.997 364.99C696.886 366.154 698.144 367.392 698.929 368.88ZM1.16829 31.25C0.565826 32.2893 0.17911 33.4701 0 34.8977V399.282L55.9923 431.537V123.509L216.569 215.416L269.187 184.973L1.16829 31.25ZM108.557 706.773L108.932 522.558L55.9923 492.209L55.5446 799.966C57.0507 799.942 58.622 799.477 60.4253 798.599L377.732 616.617V552.391L108.557 706.773Z" fill="#70C59E"/>
</g>
<defs>
<clipPath id="clip0_3211_89194">
<rect width="700" height="800" fill="white"/>
</clipPath>
</defs>
</svg>
