<svg width="40" height="46" viewBox="0 0 40 46" fill="none" xmlns="http://www.w3.org/2000/svg">
<path d="M39.7144 20.9892L3.46637 0.0684695C3.25074 -0.0436088 3.07721 -0.0191934 2.79761 0.149854L2.80598 0.142413L0.225167 1.63198C0.0565244 1.74941 0.0102349 1.92706 0 2.00914V43.8132L0.00186089 43.8018C-0.00604788 44.0848 0.0637354 44.2373 0.28774 44.3782L2.98765 45.9366C3.18212 46.0206 3.28749 46.008 3.47451 45.9048L39.7364 24.9984C39.9314 24.8745 39.9988 24.7171 39.9998 24.4139V21.4419C39.993 21.3524 39.9288 21.1022 39.7144 20.9892ZM24.6195 19.4673L30.7616 23.0124L24.6188 26.5575L24.6195 19.4673ZM6.2249 30.0496L12.3544 33.5852L6.2249 37.1229V30.0496ZM12.3547 12.3885L6.23002 15.9282V8.85383L12.3547 12.3885ZM6.44425 22.9875L18.3897 16.0931V29.882L6.44425 22.9875Z" fill="#4A9671"/>
<path d="M15.3812 31.8385L12.3677 33.5929L3.1998 28.3045L3.17211 45.9857C3.1014 45.9871 3.05976 45.968 2.98765 45.9366L0.28774 44.3785C0.0637354 44.2378 -0.00604788 44.085 0.00186089 43.802L0 43.8134V22.9615L15.3812 31.8385ZM39.9211 21.2178L24.6184 30.0308L24.6195 19.4559L21.5891 17.7182L21.5837 35.4587L39.7367 24.9984C39.9316 24.8745 39.9991 24.7171 40 24.4136V21.4419C39.9926 21.344 39.9619 21.2878 39.9211 21.2178ZM3.46637 0.0684695C3.25074 -0.0436087 3.07721 -0.0191934 2.79761 0.149854L2.80598 0.142413L0.225167 1.63198C0.155617 1.68198 0.103279 1.73592 0.0665267 1.7994L15.3819 10.6387L6.22327 15.9322L6.23002 19.4173L21.6112 10.5406L3.46637 0.0684695Z" fill="#3D8562"/>
<path d="M39.9388 21.2106L24.6184 30.0283L24.6188 26.555L33.7914 21.2611L18.4105 12.3846L21.6095 10.5381L39.7141 20.9869C39.822 21.0539 39.8939 21.125 39.9388 21.2106ZM0.0667593 1.79688C0.0323329 1.85663 0.0102349 1.92453 0 2.00661V22.9587L3.19956 24.8134V7.10176L12.3754 12.3864L15.3821 10.6359L0.0667593 1.79688ZM6.20327 40.6394L6.22467 30.0471L3.19956 28.302L3.17398 45.998C3.26004 45.9966 3.34983 45.9699 3.45288 45.9194L21.5847 35.4555V31.7625L6.20327 40.6394Z" fill="#7DA491"/>
</svg>
