<svg width="3228" height="800" viewBox="0 0 3228 800" fill="none" xmlns="http://www.w3.org/2000/svg">
<g clip-path="url(#clip0_3211_89113)">
<path d="M896.875 631.952V168.071H1047.7C1095.51 168.071 1136.92 177.826 1171.95 197.336C1207.39 216.431 1234.8 243.413 1254.16 278.282C1273.53 313.15 1283.22 353.623 1283.22 399.7C1283.22 445.362 1273.53 485.835 1254.16 521.119C1234.8 555.988 1207.39 583.177 1171.95 602.687C1136.92 622.197 1095.51 631.952 1047.7 631.952H896.875ZM969.817 566.573H1048.94C1081.5 566.573 1109.72 559.724 1133.63 546.025C1157.94 532.327 1176.69 513.024 1189.88 488.118C1203.06 463.211 1209.66 433.739 1209.66 399.7C1209.66 365.661 1202.86 336.396 1189.26 311.905C1176.07 286.999 1157.53 267.696 1133.63 253.998C1109.72 240.299 1081.5 233.45 1048.94 233.45H969.817V566.573Z" fill="#0F0F0F"/>
<path d="M1355.05 631.952V168.071H1658.56V233.45H1428V366.699H1646.2V432.078H1428V566.573H1658.56V631.952H1355.05Z" fill="#0F0F0F"/>
<path d="M1685.51 631.952L1835.72 397.21L1687.98 168.071H1770.81L1894.44 359.85H1859.21L1981.6 168.071H2064.43L1917.31 397.21L2067.52 631.952H1984.69L1859.21 435.192L1894.44 435.814L1767.72 631.952H1685.51Z" fill="#0F0F0F"/>
<path d="M2172.52 631.951V579.025L2298.62 443.285C2323.35 416.718 2342.72 395.34 2356.73 379.151C2371.15 362.547 2381.45 348.018 2387.64 335.565C2394.23 323.112 2397.53 310.036 2397.53 296.338C2397.53 273.922 2390.73 256.695 2377.13 244.657C2363.53 232.204 2346.01 225.977 2324.58 225.977C2302.33 225.977 2283.17 232.411 2267.1 245.28C2251.03 257.733 2239.9 275.997 2233.72 300.074L2169.43 281.394C2174.37 256.903 2184.27 235.732 2199.1 217.883C2213.94 199.618 2232.07 185.504 2253.5 175.542C2275.34 165.579 2298.83 160.598 2323.97 160.598C2353.23 160.598 2378.78 166.202 2400.62 177.41C2422.46 188.202 2439.35 203.354 2451.31 222.864C2463.67 242.374 2469.85 264.997 2469.85 290.734C2469.85 307.753 2466.55 324.357 2459.96 340.546C2453.78 356.32 2444.09 373.132 2430.91 390.982C2417.72 408.416 2400.82 428.134 2380.22 450.134L2268.95 569.685H2478.5V631.951H2172.52Z" fill="#70C59E"/>
<path d="M2541.96 631.951V579.025L2668.06 443.285C2692.79 416.718 2712.16 395.34 2726.17 379.151C2740.59 362.547 2750.89 348.018 2757.08 335.565C2763.67 323.112 2766.97 310.036 2766.97 296.338C2766.97 273.922 2760.17 256.695 2746.57 244.657C2732.97 232.204 2715.45 225.977 2694.03 225.977C2671.77 225.977 2652.61 232.411 2636.54 245.28C2620.47 257.733 2609.34 275.997 2603.16 300.074L2538.87 281.394C2543.82 256.903 2553.71 235.732 2568.54 217.883C2583.38 199.618 2601.51 185.504 2622.94 175.542C2644.78 165.579 2668.27 160.598 2693.41 160.598C2722.67 160.598 2748.22 166.202 2770.06 177.41C2791.9 188.202 2808.79 203.354 2820.75 222.864C2833.11 242.374 2839.29 264.997 2839.29 290.734C2839.29 307.753 2835.99 324.357 2829.4 340.546C2823.22 356.32 2813.53 373.132 2800.35 390.982C2787.16 408.416 2770.26 428.134 2749.66 450.134L2638.39 569.685H2847.94V631.951H2541.96Z" fill="#70C59E"/>
<path d="M3061.61 639.423C3036.89 639.423 3013.6 634.857 2991.76 625.724C2970.33 616.592 2951.79 603.724 2936.13 587.12C2920.88 570.515 2909.96 551.005 2903.37 528.59L2965.18 504.928C2973.42 526.929 2985.99 543.948 3002.89 555.987C3019.78 568.025 3039.36 574.044 3061.61 574.044C3079.74 574.044 3095.4 570.515 3108.59 563.458C3122.19 556.402 3132.7 546.439 3140.12 533.571C3147.95 520.702 3151.86 505.136 3151.86 486.871C3151.86 469.022 3147.95 453.663 3140.12 440.795C3132.7 427.926 3122.19 418.171 3108.59 411.53C3095.4 404.888 3079.74 401.567 3061.61 401.567C3054.19 401.567 3046.57 402.19 3038.74 403.435C3031.32 404.68 3024.73 406.341 3018.96 408.416L3002.89 374.17L3124.04 230.336H2928.09V168.07H3205.64V227.222L3086.96 370.434L3085.1 346.773C3112.71 347.188 3137.03 353.415 3158.04 365.453C3179.06 377.076 3195.34 393.265 3206.88 414.02C3218.83 434.36 3224.8 458.021 3224.8 485.003C3224.8 514.061 3217.8 540.42 3203.79 564.081C3189.77 587.327 3170.41 605.799 3145.68 619.498C3121.37 632.781 3093.34 639.423 3061.61 639.423Z" fill="#70C59E"/>
<path d="M690.684 365.027L60.2846 1.19077C56.5346 -0.758408 53.5167 -0.333795 48.6541 2.60614L48.7997 2.47674L3.91595 28.3822C0.983034 30.4243 0.177998 33.5139 0 34.9414V761.963L0.0323633 761.765C-0.105181 766.687 1.10844 769.34 5.00417 771.79L51.9592 798.893C55.3412 800.352 57.1737 800.134 60.4262 798.339L691.069 434.753C694.459 432.597 695.632 429.86 695.648 424.586V372.901C695.531 371.344 694.414 366.993 690.684 365.027ZM428.166 338.56L534.985 400.214L428.154 461.867L428.166 338.56ZM108.259 522.599L214.86 584.087L108.259 645.611V522.599ZM214.864 215.45L108.348 277.011V153.979L214.864 215.45ZM112.074 399.781L319.822 279.878V519.683L112.074 399.781Z" fill="#139F6D"/>
<path d="M267.498 553.709L215.09 584.22L55.6486 492.249L55.1672 799.746C53.9374 799.77 53.2133 799.438 51.9592 798.892L5.00417 771.794C1.10844 769.348 -0.105181 766.691 0.0323633 761.769L0 761.967V399.328L267.498 553.709ZM694.281 369.002L428.146 522.271L428.166 338.362L375.462 308.141L375.369 616.669L691.073 434.753C694.463 432.597 695.636 429.86 695.652 424.582V372.901C695.523 371.198 694.989 370.22 694.281 369.002ZM60.2847 1.19077C56.5346 -0.758408 53.5167 -0.333795 48.6541 2.60614L48.7997 2.47674L3.91595 28.3822C2.70638 29.2516 1.79616 30.1898 1.15699 31.2938L267.511 185.02L108.231 277.08L108.348 337.69L375.847 183.313L60.2847 1.19077Z" fill="#088457"/>
<path d="M694.588 368.878L428.146 522.228L428.154 461.824L587.676 369.755L320.182 215.382L375.818 183.269L690.68 364.988C692.557 366.152 693.807 367.39 694.588 368.878ZM1.16103 31.25C0.562311 32.2893 0.177998 33.4701 0 34.8976V399.28L55.6446 431.534V123.508L215.224 215.415L267.515 184.972L1.16103 31.25ZM107.883 706.768L108.255 522.555L55.6446 492.206L55.1996 799.961C56.6964 799.937 58.2579 799.472 60.05 798.594L375.385 616.613V552.387L107.883 706.768Z" fill="#70C59E"/>
</g>
<defs>
<clipPath id="clip0_3211_89113">
<rect width="3228" height="800" fill="white"/>
</clipPath>
</defs>
</svg>
