<svg width="186" height="46" viewBox="0 0 186 46" fill="none" xmlns="http://www.w3.org/2000/svg">
<path d="M51.5703 36.3372V9.66406H60.2429C62.9916 9.66406 65.3731 10.225 67.3872 11.3468C69.425 12.4448 71.0008 13.9962 72.1145 16.0012C73.2282 18.0061 73.785 20.3333 73.785 22.9828C73.785 25.6083 73.2282 27.9355 72.1145 29.9643C71.0008 31.9693 69.425 33.5327 67.3872 34.6545C65.3731 35.7763 62.9916 36.3372 60.2429 36.3372H51.5703ZM55.7645 32.5779H60.314C62.186 32.5779 63.8091 32.1841 65.1835 31.3964C66.5815 30.6088 67.6597 29.4989 68.418 28.0668C69.1762 26.6346 69.5553 24.94 69.5553 22.9828C69.5553 21.0255 69.1644 19.3428 68.3824 17.9345C67.6241 16.5024 66.5578 15.3925 65.1835 14.6049C63.8091 13.8172 62.186 13.4234 60.314 13.4234H55.7645V32.5779Z" fill="#121312"/>
<path d="M77.9156 36.3372V9.66406H95.3675V13.4234H82.1097V21.0852H94.6566V24.8445H82.1097V32.5779H95.3675V36.3372H77.9156Z" fill="#121312"/>
<path d="M96.9166 36.3372L105.554 22.8395L97.0588 9.66406H101.822L108.93 20.6914H106.904L113.942 9.66406H118.705L110.245 22.8395L118.883 36.3372H114.12L106.904 25.0235L108.93 25.0593L101.644 36.3372H96.9166Z" fill="#121312"/>
<path d="M124.92 36.3372V33.2939L132.171 25.4889C133.593 23.9613 134.706 22.7321 135.512 21.8012C136.341 20.8465 136.934 20.0111 137.289 19.295C137.668 18.5789 137.858 17.8271 137.858 17.0394C137.858 15.7505 137.467 14.76 136.685 14.0678C135.903 13.3517 134.896 12.9937 133.664 12.9937C132.384 12.9937 131.282 13.3636 130.358 14.1036C129.434 14.8196 128.794 15.8698 128.439 17.2542L124.742 16.1801C125.027 14.7719 125.595 13.5546 126.448 12.5282C127.301 11.478 128.344 10.6665 129.576 10.0936C130.832 9.5208 132.183 9.23438 133.628 9.23438C135.31 9.23438 136.78 9.5566 138.035 10.2011C139.291 10.8216 140.263 11.6928 140.95 12.8147C141.661 13.9365 142.016 15.2373 142.016 16.7172C142.016 17.6958 141.827 18.6505 141.448 19.5814C141.092 20.4884 140.535 21.4551 139.777 22.4815C139.019 23.4839 138.047 24.6177 136.863 25.8827L130.465 32.7569H142.514V36.3372H124.92Z" fill="#14AA4A"/>
<path d="M146.163 36.3372V33.2939L153.414 25.4889C154.835 23.9613 155.949 22.7321 156.755 21.8012C157.584 20.8465 158.176 20.0111 158.532 19.295C158.911 18.5789 159.101 17.8271 159.101 17.0394C159.101 15.7505 158.71 14.76 157.928 14.0678C157.146 13.3517 156.139 12.9937 154.906 12.9937C153.627 12.9937 152.525 13.3636 151.601 14.1036C150.677 14.8196 150.037 15.8698 149.682 17.2542L145.985 16.1801C146.269 14.7719 146.838 13.5546 147.691 12.5282C148.544 11.478 149.587 10.6665 150.819 10.0936C152.075 9.5208 153.425 9.23438 154.871 9.23438C156.553 9.23438 158.022 9.5566 159.278 10.2011C160.534 10.8216 161.506 11.6928 162.193 12.8147C162.904 13.9365 163.259 15.2373 163.259 16.7172C163.259 17.6958 163.07 18.6505 162.69 19.5814C162.335 20.4884 161.778 21.4551 161.02 22.4815C160.262 23.4839 159.29 24.6177 158.105 25.8827L151.708 32.7569H163.757V36.3372H146.163Z" fill="#14AA4A"/>
<path d="M176.043 36.7668C174.621 36.7668 173.282 36.5043 172.026 35.9792C170.794 35.454 169.728 34.7141 168.827 33.7594C167.951 32.8046 167.323 31.6828 166.943 30.3939L170.498 29.0334C170.972 30.2984 171.694 31.277 172.666 31.9692C173.638 32.6614 174.763 33.0075 176.043 33.0075C177.085 33.0075 177.986 32.8046 178.744 32.3989C179.526 31.9931 180.13 31.4202 180.557 30.6803C181.007 29.9404 181.232 29.0453 181.232 27.9951C181.232 26.9687 181.007 26.0856 180.557 25.3457C180.13 24.6058 179.526 24.0448 178.744 23.6629C177.986 23.2811 177.085 23.0901 176.043 23.0901C175.616 23.0901 175.178 23.1259 174.728 23.1975C174.301 23.2691 173.922 23.3646 173.59 23.4839L172.666 21.5148L179.633 13.2443H168.365V9.66401H184.324V13.0653L177.5 21.3L177.393 19.9394C178.981 19.9633 180.379 20.3213 181.587 21.0135C182.796 21.6819 183.732 22.6127 184.395 23.8062C185.083 24.9757 185.426 26.3362 185.426 27.8877C185.426 29.5585 185.023 31.0742 184.218 32.4347C183.412 33.7713 182.298 34.8335 180.877 35.6211C179.479 36.3849 177.867 36.7668 176.043 36.7668Z" fill="#14AA4A"/>
<path d="M39.7144 20.9891L3.46637 0.0684691C3.25074 -0.0436085 3.07721 -0.0191932 2.79761 0.149853L2.80598 0.142412L0.225167 1.63197C0.0565244 1.7494 0.0102349 1.92705 0 2.00913V43.8129L0.00186089 43.8015C-0.00604788 44.0845 0.0637354 44.237 0.28774 44.3779L2.98765 45.9363C3.18212 46.0203 3.28749 46.0077 3.47451 45.9045L39.7364 24.9983C39.9314 24.8743 39.9988 24.7169 39.9998 24.4137V21.4418C39.993 21.3523 39.9288 21.1021 39.7144 20.9891ZM24.6195 19.4672L30.7616 23.0123L24.6188 26.5574L24.6195 19.4672ZM6.2249 30.0494L12.3544 33.585L6.2249 37.1227V30.0494ZM12.3547 12.3884L6.23002 15.9281V8.85377L12.3547 12.3884ZM6.44425 22.9874L18.3897 16.093V29.8818L6.44425 22.9874Z" fill="#14AA4A"/>
<path d="M15.3812 31.8383L12.3677 33.5927L3.1998 28.3043L3.17211 45.9854C3.1014 45.9868 3.05976 45.9677 2.98765 45.9363L0.28774 44.3782C0.0637354 44.2375 -0.00604788 44.0847 0.00186089 43.8017L0 43.8131V22.9614L15.3812 31.8383ZM39.9211 21.2176L24.6184 30.0306L24.6195 19.4558L21.5891 17.7181L21.5837 35.4585L39.7367 24.9983C39.9316 24.8743 39.9991 24.7169 40 24.4135V21.4418C39.9926 21.3439 39.9619 21.2876 39.9211 21.2176ZM3.46637 0.0684691C3.25074 -0.0436085 3.07721 -0.0191932 2.79761 0.149853L2.80598 0.142412L0.225167 1.63197C0.155617 1.68197 0.103279 1.73591 0.0665267 1.79939L15.3819 10.6386L6.22327 15.9321L6.23002 19.4172L21.6112 10.5405L3.46637 0.0684691Z" fill="#058D36"/>
<path d="M39.9388 21.2119L24.6184 30.0295L24.6188 26.5563L33.7914 21.2623L18.4105 12.3859L21.6095 10.5394L39.7141 20.9882C39.822 21.0552 39.8939 21.1263 39.9388 21.2119ZM0.0667593 1.79828C0.0323329 1.85804 0.0102349 1.92594 0 2.00802V22.96L3.19956 24.8146V7.10313L12.3754 12.3877L15.3821 10.6373L0.0667593 1.79828ZM6.20327 40.6406L6.22467 30.0483L3.19956 28.3032L3.17398 45.9991C3.26004 45.9978 3.34983 45.971 3.45288 45.9206L21.5847 35.4567V31.7637L6.20327 40.6406Z" fill="#3BD171"/>
</svg>
