<svg width="144" height="144" viewBox="0 0 144 144" fill="none" xmlns="http://www.w3.org/2000/svg">
<path d="M143.1 65.7053L28.9191 0.214339C28.2398 -0.136514 27.6932 -0.0600836 26.8125 0.469109L26.8389 0.445816L18.7093 5.10882C18.1781 5.47642 18.0322 6.03254 18 6.2895V137.154L18.0059 137.119C17.9809 138.005 18.2008 138.482 18.9064 138.923L27.4111 143.802C28.0237 144.064 28.3556 144.025 28.9447 143.702L143.17 78.256C143.784 77.868 143.996 77.3752 143.999 76.426V67.1226C143.978 66.8423 143.776 66.0591 143.1 65.7053ZM95.5515 60.9412L114.899 72.0389L95.5493 83.1367L95.5515 60.9412ZM37.6084 94.0685L56.9165 105.136L37.6084 116.211V94.0685ZM56.9172 38.7813L37.6246 49.8623V27.7163L56.9172 38.7813ZM38.2994 71.961L75.9277 50.3784V93.5436L38.2994 71.961Z" fill="#139F6D"/>
<path d="M66.4507 99.6683L56.9582 105.16L28.0794 88.6055L27.9922 143.955C27.7694 143.96 27.6383 143.9 27.4111 143.802L18.9064 138.924C18.2008 138.483 17.9809 138.005 18.0059 137.119L18 137.155V71.8795L66.4507 99.6683ZM143.752 66.4209L95.5479 94.0095L95.5515 60.9055L86.0056 55.4658L85.9888 111.001L143.171 78.256C143.785 77.868 143.997 77.3752 144 76.4253V67.1226C143.977 66.8161 143.88 66.64 143.752 66.4209ZM28.9191 0.214339C28.2398 -0.136514 27.6932 -0.0600835 26.8125 0.469109L26.8389 0.445815L18.7093 5.10882C18.4902 5.26532 18.3253 5.4342 18.2096 5.63292L66.4529 33.3038L37.6033 49.8747L37.6246 60.7846L86.0752 32.9966L28.9191 0.214339Z" fill="#088457"/>
<path d="M143.807 66.3984L95.5479 94.0016L95.5493 83.1287L124.443 66.5564L75.9929 38.769L86.0701 32.9887L143.099 65.6981C143.439 65.9078 143.666 66.1305 143.807 66.3984ZM18.2103 5.625C18.1018 5.81207 18.0322 6.02462 18 6.28158V71.8708L28.0786 77.6767V22.2316L56.9824 38.7749L66.4536 33.2951L18.2103 5.625ZM37.5403 127.219L37.6077 94.0605L28.0786 88.5975L27.998 143.994C28.2691 143.989 28.552 143.906 28.8766 143.748L85.9917 110.991V99.4303L37.5403 127.219Z" fill="#70C59E"/>
</svg>
