<svg width="192" height="192" viewBox="0 0 192 192" fill="none" xmlns="http://www.w3.org/2000/svg">
<path d="M190.8 87.6071L38.5587 0.285786C37.6531 -0.182019 36.9243 -0.0801114 35.75 0.625478L35.7851 0.594421L24.9457 6.81176C24.2374 7.30189 24.043 8.04339 24 8.386V182.872L24.0078 182.825C23.9746 184.006 24.2677 184.643 25.2085 185.231L36.5481 191.735C37.3649 192.086 37.8075 192.033 38.5929 191.603L190.893 104.341C191.712 103.824 191.995 103.167 191.999 101.901V89.4968C191.971 89.1231 191.701 88.0788 190.8 87.6071ZM127.402 81.2549L153.199 96.0519L127.399 110.849L127.402 81.2549ZM50.1446 125.425L75.8886 140.182L50.1446 154.948V125.425ZM75.8896 51.7084L50.1661 66.4831V36.9551L75.8896 51.7084ZM51.0659 95.948L101.237 67.1712V124.725L51.0659 95.948Z" fill="#4A9671"/>
<path d="M88.6009 132.891L75.9443 140.214L37.4391 118.141L37.3229 191.94C37.0259 191.946 36.851 191.866 36.5481 191.735L25.2085 185.232C24.2677 184.645 23.9746 184.007 24.0078 182.826L24 182.873V95.8393L88.6009 132.891ZM191.669 88.5612L127.397 125.346L127.402 81.2073L114.674 73.9544L114.652 148.001L190.894 104.341C191.713 103.824 191.996 103.167 192 101.9V89.4968C191.969 89.0882 191.84 88.8533 191.669 88.5612ZM38.5587 0.285786C37.6531 -0.182019 36.9243 -0.0801114 35.75 0.625478L35.7851 0.594421L24.9457 6.81176C24.6536 7.02043 24.4338 7.2456 24.2794 7.51056L88.6038 44.405L50.1377 66.4996L50.1661 81.0462L114.767 43.9955L38.5587 0.285786Z" fill="#3D8562"/>
<path d="M191.743 88.5312L127.397 125.335L127.399 110.838L165.924 88.7418L101.324 51.692L114.76 43.9849L190.799 87.5975C191.253 87.877 191.554 88.174 191.743 88.5312ZM24.2804 7.5C24.1358 7.74943 24.043 8.03283 24 8.37544V95.8278L37.4382 103.569V29.6421L75.9765 51.6998L88.6048 44.3935L24.2804 7.5ZM50.0537 169.625L50.1436 125.414L37.4382 118.13L37.3307 191.992C37.6922 191.986 38.0693 191.874 38.5021 191.664L114.656 147.988V132.574L50.0537 169.625Z" fill="#7DA491"/>
</svg>
