<svg width="96" height="96" viewBox="0 0 96 96" fill="none" xmlns="http://www.w3.org/2000/svg">
<path d="M95.4001 43.8036L19.2794 0.142893C18.8265 -0.0910096 18.4621 -0.0400557 17.875 0.312739L17.8926 0.29721L12.4729 3.40588C12.1187 3.65095 12.0215 4.0217 12 4.193V91.4362L12.0039 91.4124C11.9873 92.003 12.1338 92.3214 12.6043 92.6154L18.2741 95.8677C18.6824 96.0429 18.9037 96.0167 19.2965 95.8013L95.4465 52.1707C95.8559 51.912 95.9976 51.5835 95.9995 50.9507V44.7484C95.9853 44.5616 95.8505 44.0394 95.4001 43.8036ZM63.701 40.6274L76.5994 48.0259L63.6996 55.4244L63.701 40.6274ZM25.0723 62.7123L37.9443 70.0909L25.0723 77.4739V62.7123ZM37.9448 25.8542L25.083 33.2416V18.4776L37.9448 25.8542ZM25.5329 47.974L50.6185 33.5856V62.3624L25.5329 47.974Z" fill="#139F6D"/>
<path d="M44.3004 66.4455L37.9721 70.1069L18.7196 59.0703L18.6614 95.9701C18.5129 95.973 18.4255 95.9332 18.2741 95.8677L12.6043 92.6159C12.1338 92.3223 11.9873 92.0035 12.0039 91.4129L12 91.4367V47.9197L44.3004 66.4455ZM95.8344 44.2806L63.6986 62.673L63.701 40.6036L57.3371 36.9772L57.3258 74.0007L95.447 52.1707C95.8564 51.912 95.998 51.5835 96 50.9502V44.7484C95.9844 44.5441 95.9199 44.4266 95.8344 44.2806ZM19.2794 0.142893C18.8265 -0.0910095 18.4621 -0.0400557 17.875 0.312739L17.8926 0.29721L12.4729 3.40588C12.3268 3.51021 12.2169 3.6228 12.1397 3.75528L44.3019 22.2025L25.0689 33.2498L25.083 40.5231L57.3835 21.9977L19.2794 0.142893Z" fill="#088457"/>
<path d="M95.8715 44.2656L63.6986 62.6677L63.6996 55.4192L82.9619 44.3709L50.6619 25.846L57.3801 21.9925L95.3996 43.7988C95.6263 43.9385 95.7772 44.087 95.8715 44.2656ZM12.1402 3.75C12.0679 3.87472 12.0215 4.01642 12 4.18772V47.9139L18.7191 51.7844V14.8211L37.9883 25.8499L44.3024 22.1968L12.1402 3.75ZM25.0269 84.8127L25.0718 62.707L18.7191 59.065L18.6653 95.9959C18.8461 95.993 19.0346 95.9372 19.251 95.8319L57.3278 73.994V66.2869L25.0269 84.8127Z" fill="#70C59E"/>
</svg>
