<svg width="1024" height="1024" viewBox="0 0 1024 1024" fill="none" xmlns="http://www.w3.org/2000/svg">
<path d="M1017.6 467.238L205.647 1.52419C200.817 -0.970769 196.929 -0.427261 190.666 3.33588L190.854 3.17024L133.044 36.3294C129.266 38.9434 128.229 42.8981 128 44.7253V975.32L128.042 975.066C127.865 981.365 129.428 984.761 134.445 987.898L194.923 1022.59C199.279 1024.46 201.64 1024.18 205.829 1021.88L1018.1 556.487C1022.46 553.728 1023.97 550.224 1023.99 543.474V477.316C1023.84 475.323 1022.41 469.754 1017.6 467.238ZM679.478 433.359L817.06 512.277L679.462 591.194L679.478 433.359ZM267.438 668.931L404.739 747.636L267.438 826.388V668.931ZM404.744 275.778L267.552 354.577V197.094L404.744 275.778ZM272.351 511.723L539.93 358.247V665.199L272.351 511.723Z" fill="#4A9671"/>
<path d="M472.538 708.752L405.036 747.807L199.675 630.083L199.055 1023.68C197.471 1023.71 196.539 1023.29 194.923 1022.59L134.445 987.903C129.428 984.771 127.865 981.37 128.042 975.071L128 975.325V511.143L472.538 708.752ZM1022.23 472.326L679.452 668.512L679.478 433.106L611.595 394.423L611.476 789.341L1018.1 556.487C1022.47 553.728 1023.98 550.224 1024 543.469V477.316C1023.83 475.137 1023.15 473.884 1022.23 472.326ZM205.647 1.52419C200.817 -0.970769 196.929 -0.427261 190.666 3.33588L190.854 3.17024L133.044 36.3294C131.486 37.4423 130.313 38.6432 129.49 40.0563L472.554 236.827L267.401 354.664L267.552 432.246L612.09 234.642L205.647 1.52419Z" fill="#3D8562"/>
<path d="M1022.63 472.166L679.452 668.456L679.462 591.138L884.927 473.29L540.394 275.691L612.054 234.586L1017.6 467.187C1020.01 468.678 1021.62 470.262 1022.63 472.166ZM129.495 40C128.724 41.3303 128.229 42.8418 128 44.669V511.082L199.67 552.367V158.091L405.208 275.732L472.559 236.765L129.495 40ZM266.953 904.669L267.433 668.875L199.67 630.027L199.097 1023.96C201.025 1023.93 203.036 1023.33 205.344 1022.21L611.496 789.27V707.06L266.953 904.669Z" fill="#7DA491"/>
</svg>
