<svg width="16" height="16" viewBox="0 0 16 16" fill="none" xmlns="http://www.w3.org/2000/svg">
<path d="M15.9 7.30059L3.21323 0.0238155C3.13776 -0.0151683 3.07702 -0.00667595 2.97916 0.0521232L2.98209 0.0495351L2.07881 0.567647C2.01978 0.608491 2.00358 0.670283 2 0.698833V15.2394L2.00065 15.2354C1.99788 15.3338 2.02231 15.3869 2.10071 15.4359L3.04568 15.978C3.11374 16.0072 3.15062 16.0028 3.21608 15.9669L15.9078 8.69511C15.976 8.652 15.9996 8.59725 15.9999 8.49178V7.45807C15.9976 7.42693 15.9751 7.3399 15.9 7.30059ZM10.6168 6.77124L12.7666 8.00432L10.6166 9.23741L10.6168 6.77124ZM4.17871 10.452L6.32405 11.6818L4.17871 12.9123V10.452ZM6.32413 4.30904L4.18051 5.54026V3.07959L6.32413 4.30904ZM4.25549 7.99567L8.43641 5.5976V10.3937L4.25549 7.99567Z" fill="#4A9671"/>
<path d="M7.38341 11.0743L6.32869 11.6845L3.11993 9.84505L3.11024 15.995C3.08549 15.9955 3.07092 15.9889 3.04568 15.978L2.10071 15.436C2.02231 15.3871 1.99788 15.3339 2.00065 15.2355L2 15.2394V7.98661L7.38341 11.0743ZM15.9724 7.3801L10.6164 10.4455L10.6168 6.76728L9.55618 6.16287L9.55431 12.3335L15.9078 8.69511C15.9761 8.652 15.9997 8.59725 16 8.4917V7.45806C15.9974 7.42401 15.9866 7.40444 15.9724 7.3801ZM3.21323 0.0238155C3.13776 -0.0151683 3.07702 -0.00667595 2.97916 0.0521232L2.98209 0.049535L2.07881 0.567647C2.05447 0.585036 2.03615 0.6038 2.02328 0.62588L7.38365 3.70042L4.17815 5.54163L4.18051 6.75385L9.56391 3.66629L3.21323 0.0238155Z" fill="#3D8562"/>
<path d="M15.9786 7.3776L10.6164 10.4446L10.6166 9.23653L13.827 7.39515L8.44366 4.30767L9.56334 3.66541L15.8999 7.29979C15.9377 7.32309 15.9629 7.34784 15.9786 7.3776ZM2.02337 0.625C2.01132 0.645786 2.00358 0.669403 2 0.697953V7.98565L3.11985 8.63074V2.47018L6.33138 4.30832L7.38373 3.69946L2.02337 0.625ZM4.17114 14.1355L4.17863 10.4512L3.11985 9.84417L3.11089 15.9993C3.14101 15.9988 3.17244 15.9895 3.20851 15.972L9.55463 12.3323V11.0478L4.17114 14.1355Z" fill="#7DA491"/>
</svg>
