<svg width="32" height="32" viewBox="0 0 32 32" fill="none" xmlns="http://www.w3.org/2000/svg">
<path d="M31.8 14.6012L6.42646 0.047631C6.27552 -0.0303365 6.15405 -0.0133519 5.95833 0.104246L5.96419 0.0990701L4.15762 1.13529C4.03957 1.21698 4.00716 1.34057 4 1.39767V30.4787L4.0013 30.4708C3.99577 30.6677 4.04461 30.7738 4.20142 30.8718L6.09136 31.9559C6.22748 32.0143 6.30124 32.0056 6.43216 31.9338L31.8155 17.3902C31.952 17.304 31.9992 17.1945 31.9998 16.9836V14.9161C31.9951 14.8539 31.9502 14.6798 31.8 14.6012ZM21.2337 13.5425L25.5331 16.0086L21.2332 18.4748L21.2337 13.5425ZM8.35743 20.9041L12.6481 23.3636L8.35743 25.8246V20.9041ZM12.6483 8.61807L8.36101 11.0805V6.15918L12.6483 8.61807ZM8.51098 15.9913L16.8728 11.1952V20.7875L8.51098 15.9913Z" fill="#139F6D"/>
<path d="M14.7668 22.1485L12.6574 23.369L6.23986 19.6901L6.22048 31.99C6.17098 31.991 6.14183 31.9777 6.09136 31.9559L4.20142 30.872C4.04461 30.7741 3.99577 30.6678 4.0013 30.471L4 30.4789V15.9732L14.7668 22.1485ZM31.9448 14.7602L21.2329 20.891L21.2337 13.5346L19.1124 12.3257L19.1086 24.6669L31.8157 17.3902C31.9521 17.304 31.9993 17.1945 32 16.9834V14.9161C31.9948 14.848 31.9733 14.8089 31.9448 14.7602ZM6.42646 0.047631C6.27552 -0.0303365 6.15405 -0.0133519 5.95833 0.104246L5.96419 0.0990701L4.15762 1.13529C4.10893 1.17007 4.0723 1.2076 4.04657 1.25176L14.7673 7.40084L8.35629 11.0833L8.36101 13.5077L19.1278 7.33258L6.42646 0.047631Z" fill="#088457"/>
<path d="M31.9572 14.7552L21.2329 20.8892L21.2332 18.4731L27.654 14.7903L16.8873 8.61534L19.1267 7.33082L31.7999 14.5996C31.8754 14.6462 31.9257 14.6957 31.9572 14.7552ZM4.04673 1.25C4.02263 1.29157 4.00716 1.33881 4 1.39591V15.9713L6.23969 17.2615V4.94035L12.6628 8.61663L14.7675 7.39892L4.04673 1.25ZM8.34229 28.2709L8.35727 20.9023L6.23969 19.6883L6.22178 31.9986C6.28203 31.9977 6.34488 31.9791 6.41701 31.944L19.1093 24.6647V22.0956L8.34229 28.2709Z" fill="#70C59E"/>
</svg>
