<svg width="256" height="256" viewBox="0 0 256 256" fill="none" xmlns="http://www.w3.org/2000/svg">
<path d="M254.4 116.809L51.4117 0.381048C50.2041 -0.242692 49.2324 -0.106815 47.6666 0.833971L47.7135 0.792561L33.2609 9.08235C32.3165 9.73585 32.0573 10.7245 32 11.1813V243.83L32.0104 243.766C31.9661 245.341 32.3569 246.19 33.6113 246.974L48.7309 255.647C49.8199 256.114 50.4099 256.045 51.4572 255.47L254.524 139.122C255.616 138.432 255.993 137.556 255.999 135.868V119.329C255.961 118.831 255.601 117.438 254.4 116.809ZM169.869 108.34L204.265 128.069L169.865 147.799L169.869 108.34ZM66.8594 167.233L101.185 186.909L66.8594 206.597V167.233ZM101.186 68.9446L66.8881 88.6441V49.2735L101.186 68.9446ZM68.0878 127.931L134.983 89.5616V166.3L68.0878 127.931Z" fill="#139F6D"/>
<path d="M118.135 177.188L101.259 186.952L49.9189 157.521L49.7638 255.92C49.3678 255.928 49.1347 255.822 48.7309 255.647L33.6113 246.976C32.3569 246.193 31.9661 245.343 32.0104 243.768L32 243.831V127.786L118.135 177.188ZM255.558 118.082L169.863 167.128L169.869 108.276L152.899 98.6058L152.869 197.335L254.525 139.122C255.617 138.432 255.995 137.556 256 135.867V119.329C255.958 118.784 255.786 118.471 255.558 118.082ZM51.4117 0.381048C50.2041 -0.242692 49.2324 -0.106815 47.6666 0.833971L47.7135 0.792561L33.2609 9.08235C32.8715 9.36057 32.5784 9.6608 32.3725 10.0141L118.138 59.2067L66.8503 88.6661L66.8881 108.062L153.023 58.6606L51.4117 0.381048Z" fill="#088457"/>
<path d="M255.657 118.042L169.863 167.114L169.865 147.784L221.232 118.322L135.099 68.9227L153.013 58.6465L254.399 116.797C255.003 117.169 255.406 117.565 255.657 118.042ZM32.3739 10C32.1811 10.3326 32.0573 10.7104 32 11.1672V127.77L49.9176 138.092V39.5228L101.302 68.9331L118.14 59.1913L32.3739 10ZM66.7383 226.167L66.8581 167.219L49.9176 157.507L49.7743 255.989C50.2562 255.981 50.759 255.832 51.3361 255.552L152.874 197.317V176.765L66.7383 226.167Z" fill="#70C59E"/>
</svg>
