<svg width="48" height="48" viewBox="0 0 48 48" fill="none" xmlns="http://www.w3.org/2000/svg">
<path d="M47.7001 21.9018L9.63969 0.0714465C9.41327 -0.0455048 9.23107 -0.0200279 8.93749 0.15637L8.94628 0.148605L6.23643 1.70294C6.05935 1.82547 6.01075 2.01085 6 2.0965V45.7181L6.00195 45.7062C5.99365 46.0015 6.06692 46.1607 6.30213 46.3077L9.13704 47.9339C9.34122 48.0215 9.45186 48.0084 9.64823 47.9006L47.7233 26.0853C47.9279 25.956 47.9988 25.7917 47.9998 25.4753V22.3742C47.9927 22.2808 47.9253 22.0197 47.7001 21.9018ZM31.8505 20.3137L38.2997 24.013L31.8498 27.7122L31.8505 20.3137ZM12.5361 31.3561L18.9721 35.0455L12.5361 38.7369V31.3561ZM18.9724 12.9271L12.5415 16.6208V9.23878L18.9724 12.9271ZM12.7665 23.987L25.3092 16.7928V31.1812L12.7665 23.987Z" fill="#4A9671"/>
<path d="M22.1502 33.2228L18.9861 35.0535L9.35979 29.5351L9.33072 47.9851C9.25647 47.9865 9.21275 47.9666 9.13704 47.9339L6.30213 46.3079C6.06692 46.1611 5.99365 46.0017 6.00195 45.7064L6 45.7183V23.9598L22.1502 33.2228ZM47.9172 22.1403L31.8493 31.3365L31.8505 20.3018L28.6685 18.4886L28.6629 37.0004L47.7235 26.0853C47.9282 25.956 47.999 25.7917 48 25.4751V22.3742C47.9922 22.272 47.9599 22.2133 47.9172 22.1403ZM9.63969 0.0714464C9.41327 -0.0455048 9.23107 -0.0200278 8.93749 0.15637L8.94628 0.148605L6.23643 1.70294C6.1634 1.75511 6.10844 1.8114 6.06985 1.87764L22.151 11.1013L12.5344 16.6249L12.5415 20.2615L28.6917 10.9989L9.63969 0.0714464Z" fill="#3D8562"/>
<path d="M47.9358 22.1328L31.8493 31.3339L31.8498 27.7096L41.4809 22.1855L25.331 12.923L28.69 10.9962L47.6998 21.8994C47.8131 21.9693 47.8886 22.0435 47.9358 22.1328ZM6.0701 1.875C6.03395 1.93736 6.01075 2.00821 6 2.09386V23.9569L9.35954 25.8922V7.41053L18.9941 12.925L22.1512 11.0984L6.0701 1.875ZM12.5134 42.4064L12.5359 31.3535L9.35954 29.5325L9.33267 47.9979C9.42304 47.9965 9.51732 47.9686 9.62552 47.9159L28.6639 36.997V33.1434L12.5134 42.4064Z" fill="#7DA491"/>
</svg>
