<svg width="384" height="384" viewBox="0 0 384 384" fill="none" xmlns="http://www.w3.org/2000/svg">
<path d="M381.601 175.214L77.1175 0.571572C75.3062 -0.364038 73.8486 -0.160223 71.4999 1.25096L71.5703 1.18884L49.8914 13.6235C48.4748 14.6038 48.086 16.0868 48 16.772V365.745L48.0156 365.65C47.9492 368.012 48.5354 369.285 50.417 370.462L73.0963 383.471C74.7298 384.172 75.6149 384.067 77.1859 383.205L381.786 208.683C383.424 207.648 383.99 206.334 383.998 203.803V178.994C383.941 178.246 383.402 176.158 381.601 175.214ZM254.804 162.51L306.398 192.104L254.798 221.698L254.804 162.51ZM100.289 250.849L151.777 280.364L100.289 309.896V250.849ZM151.779 103.417L100.332 132.966V73.9102L151.779 103.417ZM102.132 191.896L202.474 134.342V249.45L102.132 191.896Z" fill="#4A9671"/>
<path d="M177.202 265.782L151.889 280.428L74.8783 236.281L74.6458 383.88C74.0518 383.892 73.702 383.733 73.0963 383.471L50.417 370.464C48.5354 369.289 47.9492 368.014 48.0156 365.652L48 365.747V191.679L177.202 265.782ZM383.338 177.122L254.794 250.692L254.804 162.415L229.348 147.909L229.303 296.003L381.788 208.683C383.426 207.648 383.992 206.334 384 203.801V178.994C383.937 178.176 383.68 177.707 383.338 177.122ZM77.1175 0.571572C75.3062 -0.364038 73.8486 -0.160223 71.4999 1.25096L71.5703 1.18884L49.8914 13.6235C49.3072 14.0409 48.8675 14.4912 48.5588 15.0211L177.208 88.8101L100.275 132.999L100.332 162.092L229.534 87.9909L77.1175 0.571572Z" fill="#3D8562"/>
<path d="M383.486 177.062L254.794 250.671L254.798 221.677L331.848 177.484L202.648 103.384L229.52 87.9698L381.599 175.195C382.505 175.754 383.109 176.348 383.486 177.062ZM48.5608 15C48.2716 15.4989 48.086 16.0657 48 16.7509V191.656L74.8763 207.138V59.2842L151.953 103.4L177.21 88.787L48.5608 15ZM100.107 339.251L100.287 250.828L74.8763 236.26L74.6614 383.984C75.3843 383.972 76.1386 383.749 77.0042 383.327L229.311 295.976V265.148L100.107 339.251Z" fill="#7DA491"/>
</svg>
