<svg width="512" height="512" viewBox="0 0 512 512" fill="none" xmlns="http://www.w3.org/2000/svg">
<path d="M508.801 233.619L102.823 0.762096C100.408 -0.485384 98.4647 -0.21363 95.3332 1.66794L95.427 1.58512L66.5219 18.1647C64.6331 19.4717 64.1146 21.449 64 22.3627V487.66L64.0208 487.533C63.9323 490.683 64.7138 492.381 67.2227 493.949L97.4617 511.295C99.6397 512.229 100.82 512.089 102.914 510.94L509.048 278.244C511.231 276.864 511.987 275.112 511.997 271.737V238.658C511.922 237.662 511.203 234.877 508.801 233.619ZM339.739 216.68L408.53 256.138L339.731 295.597L339.739 216.68ZM133.719 334.466L202.37 373.818L133.719 413.194V334.466ZM202.372 137.889L133.776 177.288V98.5469L202.372 137.889ZM136.176 255.861L269.965 179.123V332.6L136.176 255.861Z" fill="#4A9671"/>
<path d="M236.269 354.376L202.518 373.904L99.8377 315.042L99.5277 511.841C98.7357 511.856 98.2694 511.644 97.4617 511.294L67.2227 493.951C64.7138 492.386 63.9323 490.685 64.0208 487.535L64 487.662V255.572L236.269 354.376ZM511.117 236.163L339.726 334.256L339.739 216.553L305.798 197.212L305.738 394.671L509.051 278.244C511.234 276.864 511.99 275.112 512 271.734V238.658C511.917 237.568 511.573 236.942 511.117 236.163ZM102.823 0.762096C100.408 -0.485384 98.4647 -0.21363 95.3332 1.66794L95.427 1.58512L66.5219 18.1647C65.7429 18.7211 65.1567 19.3216 64.7451 20.0282L236.277 118.413L133.701 177.332L133.776 216.123L306.045 117.321L102.823 0.762096Z" fill="#3D8562"/>
<path d="M511.315 236.083L339.726 334.228L339.731 295.569L442.463 236.645L270.197 137.845L306.027 117.293L508.798 233.593C510.007 234.339 510.812 235.131 511.315 236.083ZM64.7477 20C64.3621 20.6652 64.1146 21.4209 64 22.3345V255.541L99.8351 276.184V79.0457L202.604 137.866L236.279 118.383L64.7477 20ZM133.477 452.335L133.716 334.437L99.8351 315.013L99.5485 511.978C100.512 511.963 101.518 511.665 102.672 511.103L305.748 394.635V353.53L133.477 452.335Z" fill="#7DA491"/>
</svg>
